<svg xmlns="http://www.w3.org/2000/svg" viewBox="0 0 1200 340" role="img" aria-labelledby="st sd">
  <title id="st">What the matrix is made of</title>
  <desc id="sd">Language composition across all 16 repositories by bytes: TypeScript 65.5 percent, JavaScript 14.1 percent, HTML 13.9 percent, Rust 3.9 percent, CSS 1.9 percent, Python 0.4 percent, Shell 0.4 percent. Below, the technology tags used across the matrix.</desc>
  <rect width="1200" height="340" rx="18" fill="#0c0c0f"/>
  <rect x="0.75" y="0.75" width="1198.5" height="338.5" rx="17.25" fill="none" stroke="#ffffff" stroke-opacity="0.09"/>

  <text x="56" y="46" font-family="-apple-system, BlinkMacSystemFont, 'Segoe UI', 'PingFang SC', sans-serif" font-size="24" font-weight="600" fill="#fafafa">What it's made of</text>
  <text x="1144" y="46" text-anchor="end" font-family="ui-monospace, SFMono-Regular, Menlo, monospace" font-size="19" fill="#8a8a93">by bytes &#183; 16 repos</text>
  <line x1="56" y1="62" x2="1144" y2="62" stroke="#ffffff" stroke-opacity="0.08"/>

  <rect x="56.0" y="88" width="710.3" height="18" rx="4" fill="#ef4444"/>
  <rect x="768.3" y="88" width="151.5" height="18" rx="4" fill="#f97316"/>
  <rect x="921.8" y="88" width="148.8" height="18" rx="4" fill="#f59e0b"/>
  <rect x="1072.6" y="88" width="40.6" height="18" rx="4" fill="#eab308"/>
  <rect x="1115.2" y="88" width="18.2" height="18" rx="4" fill="#84cc16"/>
  <rect x="1135.3" y="88" width="2.3" height="18" rx="4" fill="#22c55e"/>
  <rect x="1139.7" y="88" width="2.0" height="18" rx="4" fill="#10b981"/>
  <circle cx="62" cy="146" r="5" fill="#ef4444"/>
  <text x="78" y="152" font-family="-apple-system, BlinkMacSystemFont, 'Segoe UI', 'PingFang SC', sans-serif" font-size="19" fill="#e6e6ea">TypeScript</text>
  <text x="296" y="152" text-anchor="end" font-family="ui-monospace, SFMono-Regular, Menlo, monospace" font-size="19" fill="#8a8a93">65.5%</text>
  <circle cx="334" cy="146" r="5" fill="#f97316"/>
  <text x="350" y="152" font-family="-apple-system, BlinkMacSystemFont, 'Segoe UI', 'PingFang SC', sans-serif" font-size="19" fill="#e6e6ea">JavaScript</text>
  <text x="568" y="152" text-anchor="end" font-family="ui-monospace, SFMono-Regular, Menlo, monospace" font-size="19" fill="#8a8a93">14.1%</text>
  <circle cx="606" cy="146" r="5" fill="#f59e0b"/>
  <text x="622" y="152" font-family="-apple-system, BlinkMacSystemFont, 'Segoe UI', 'PingFang SC', sans-serif" font-size="19" fill="#e6e6ea">HTML</text>
  <text x="840" y="152" text-anchor="end" font-family="ui-monospace, SFMono-Regular, Menlo, monospace" font-size="19" fill="#8a8a93">13.9%</text>
  <circle cx="878" cy="146" r="5" fill="#eab308"/>
  <text x="894" y="152" font-family="-apple-system, BlinkMacSystemFont, 'Segoe UI', 'PingFang SC', sans-serif" font-size="19" fill="#e6e6ea">Rust</text>
  <text x="1112" y="152" text-anchor="end" font-family="ui-monospace, SFMono-Regular, Menlo, monospace" font-size="19" fill="#8a8a93">3.9%</text>
  <circle cx="62" cy="180" r="5" fill="#84cc16"/>
  <text x="78" y="186" font-family="-apple-system, BlinkMacSystemFont, 'Segoe UI', 'PingFang SC', sans-serif" font-size="19" fill="#e6e6ea">CSS</text>
  <text x="296" y="186" text-anchor="end" font-family="ui-monospace, SFMono-Regular, Menlo, monospace" font-size="19" fill="#8a8a93">1.9%</text>
  <circle cx="334" cy="180" r="5" fill="#22c55e"/>
  <text x="350" y="186" font-family="-apple-system, BlinkMacSystemFont, 'Segoe UI', 'PingFang SC', sans-serif" font-size="19" fill="#e6e6ea">Python</text>
  <text x="568" y="186" text-anchor="end" font-family="ui-monospace, SFMono-Regular, Menlo, monospace" font-size="19" fill="#8a8a93">0.4%</text>
  <circle cx="606" cy="180" r="5" fill="#10b981"/>
  <text x="622" y="186" font-family="-apple-system, BlinkMacSystemFont, 'Segoe UI', 'PingFang SC', sans-serif" font-size="19" fill="#e6e6ea">Shell</text>
  <text x="840" y="186" text-anchor="end" font-family="ui-monospace, SFMono-Regular, Menlo, monospace" font-size="19" fill="#8a8a93">0.4%</text>

  <text x="56" y="222" font-family="ui-monospace, SFMono-Regular, Menlo, monospace" font-size="18" letter-spacing="2" fill="#6e6e77">TECH TAGS</text>
  <rect x="56" y="232" width="125" height="32" rx="16" fill="#ffffff" fill-opacity="0.05" stroke="#ffffff" stroke-opacity="0.12"/>
  <text x="69" y="254" font-family="ui-monospace, SFMono-Regular, Menlo, monospace" font-size="18" fill="#8a8a93">animation</text>
  <rect x="191" y="232" width="59" height="32" rx="16" fill="#ffffff" fill-opacity="0.05" stroke="#ffffff" stroke-opacity="0.12"/>
  <text x="204" y="254" font-family="ui-monospace, SFMono-Regular, Menlo, monospace" font-size="18" fill="#8a8a93">api</text>
  <rect x="260" y="232" width="92" height="32" rx="16" fill="#ffffff" fill-opacity="0.05" stroke="#ffffff" stroke-opacity="0.12"/>
  <text x="273" y="254" font-family="ui-monospace, SFMono-Regular, Menlo, monospace" font-size="18" fill="#8a8a93">blocks</text>
  <rect x="362" y="232" width="103" height="32" rx="16" fill="#ffffff" fill-opacity="0.05" stroke="#ffffff" stroke-opacity="0.12"/>
  <text x="375" y="254" font-family="ui-monospace, SFMono-Regular, Menlo, monospace" font-size="18" fill="#8a8a93">browser</text>
  <rect x="475" y="232" width="81" height="32" rx="16" fill="#ffffff" fill-opacity="0.05" stroke="#ffffff" stroke-opacity="0.12"/>
  <text x="488" y="254" font-family="ui-monospace, SFMono-Regular, Menlo, monospace" font-size="18" fill="#8a8a93">color</text>
  <rect x="566" y="232" width="103" height="32" rx="16" fill="#ffffff" fill-opacity="0.05" stroke="#ffffff" stroke-opacity="0.12"/>
  <text x="579" y="254" font-family="ui-monospace, SFMono-Regular, Menlo, monospace" font-size="18" fill="#8a8a93">desktop</text>
  <rect x="679" y="232" width="125" height="32" rx="16" fill="#ffffff" fill-opacity="0.05" stroke="#ffffff" stroke-opacity="0.12"/>
  <text x="692" y="254" font-family="ui-monospace, SFMono-Regular, Menlo, monospace" font-size="18" fill="#8a8a93">extension</text>
  <rect x="814" y="232" width="81" height="32" rx="16" fill="#ffffff" fill-opacity="0.05" stroke="#ffffff" stroke-opacity="0.12"/>
  <text x="827" y="254" font-family="ui-monospace, SFMono-Regular, Menlo, monospace" font-size="18" fill="#8a8a93">graph</text>
  <rect x="905" y="232" width="81" height="32" rx="16" fill="#ffffff" fill-opacity="0.05" stroke="#ffffff" stroke-opacity="0.12"/>
  <text x="918" y="254" font-family="ui-monospace, SFMono-Regular, Menlo, monospace" font-size="18" fill="#8a8a93">icons</text>
  <rect x="996" y="232" width="70" height="32" rx="16" fill="#ffffff" fill-opacity="0.05" stroke="#ffffff" stroke-opacity="0.12"/>
  <text x="1009" y="254" font-family="ui-monospace, SFMono-Regular, Menlo, monospace" font-size="18" fill="#8a8a93">meta</text>
  <rect x="56" y="272" width="92" height="32" rx="16" fill="#ffffff" fill-opacity="0.05" stroke="#ffffff" stroke-opacity="0.12"/>
  <text x="69" y="294" font-family="ui-monospace, SFMono-Regular, Menlo, monospace" font-size="18" fill="#8a8a93">motion</text>
  <rect x="158" y="272" width="92" height="32" rx="16" fill="#ffffff" fill-opacity="0.05" stroke="#ffffff" stroke-opacity="0.12"/>
  <text x="171" y="294" font-family="ui-monospace, SFMono-Regular, Menlo, monospace" font-size="18" fill="#8a8a93">nextjs</text>
  <rect x="260" y="272" width="114" height="32" rx="16" fill="#ffffff" fill-opacity="0.05" stroke="#ffffff" stroke-opacity="0.12"/>
  <text x="273" y="294" font-family="ui-monospace, SFMono-Regular, Menlo, monospace" font-size="18" fill="#8a8a93">pipeline</text>
  <rect x="384" y="272" width="136" height="32" rx="16" fill="#ffffff" fill-opacity="0.05" stroke="#ffffff" stroke-opacity="0.12"/>
  <text x="397" y="294" font-family="ui-monospace, SFMono-Regular, Menlo, monospace" font-size="18" fill="#8a8a93">playground</text>
  <rect x="530" y="272" width="81" height="32" rx="16" fill="#ffffff" fill-opacity="0.05" stroke="#ffffff" stroke-opacity="0.12"/>
  <text x="543" y="294" font-family="ui-monospace, SFMono-Regular, Menlo, monospace" font-size="18" fill="#8a8a93">tauri</text>
  <rect x="621" y="272" width="114" height="32" rx="16" fill="#ffffff" fill-opacity="0.05" stroke="#ffffff" stroke-opacity="0.12"/>
  <text x="634" y="294" font-family="ui-monospace, SFMono-Regular, Menlo, monospace" font-size="18" fill="#8a8a93">template</text>
  <rect x="745" y="272" width="70" height="32" rx="16" fill="#ffffff" fill-opacity="0.05" stroke="#ffffff" stroke-opacity="0.12"/>
  <text x="758" y="294" font-family="ui-monospace, SFMono-Regular, Menlo, monospace" font-size="18" fill="#8a8a93">tool</text>
  <rect x="825" y="272" width="81" height="32" rx="16" fill="#ffffff" fill-opacity="0.05" stroke="#ffffff" stroke-opacity="0.12"/>
  <text x="838" y="294" font-family="ui-monospace, SFMono-Regular, Menlo, monospace" font-size="18" fill="#8a8a93">tools</text>
  <rect x="916" y="272" width="48" height="32" rx="16" fill="#ffffff" fill-opacity="0.05" stroke="#ffffff" stroke-opacity="0.12"/>
  <text x="929" y="294" font-family="ui-monospace, SFMono-Regular, Menlo, monospace" font-size="18" fill="#8a8a93">ui</text>
  <rect x="974" y="272" width="81" height="32" rx="16" fill="#ffffff" fill-opacity="0.05" stroke="#ffffff" stroke-opacity="0.12"/>
  <text x="987" y="294" font-family="ui-monospace, SFMono-Regular, Menlo, monospace" font-size="18" fill="#8a8a93">video</text>
</svg>
